<?xml version="1.0" encoding="UTF-8"?>
<!DOCTYPE svg PUBLIC "-//W3C//DTD SVG 1.1//EN" "http://www.w3.org/Graphics/SVG/1.1/DTD/svg11.dtd">
<!-- Creator: CorelDRAW -->
<svg xmlns="http://www.w3.org/2000/svg" xml:space="preserve" width="391.584mm" height="33.4424mm" version="1.1" style="shape-rendering:geometricPrecision; text-rendering:geometricPrecision; image-rendering:optimizeQuality; fill-rule:evenodd; clip-rule:evenodd"
viewBox="0 0 3543.91 302.66"
 xmlns:xlink="http://www.w3.org/1999/xlink"
 xmlns:xodm="http://www.corel.com/coreldraw/odm/2003">
 <defs>
  <style type="text/css">
   <![CDATA[
    .fil1 {fill:#2C4B9B}
    .fil0 {fill:white}
    .fil2 {fill:url(#id4)}
   ]]>
  </style>
   <mask id="id0">
  <linearGradient id="id1" gradientUnits="userSpaceOnUse" x1="3104.31" y1="-63.79" x2="3151.54" y2="206.64">
   <stop offset="0" style="stop-opacity:0.0784314; stop-color:white"/>
   <stop offset="1" style="stop-opacity:0; stop-color:white"/>
  </linearGradient>
    <rect style="fill:url(#id1)" x="2743.48" y="-0.91" width="801.33" height="304.47"/>
   </mask>
   <mask id="id2">
  <linearGradient id="id3" gradientUnits="userSpaceOnUse" x1="598.61" y1="510.92" x2="219.59" y2="62.28">
   <stop offset="0" style="stop-opacity:0.188235; stop-color:white"/>
   <stop offset="1" style="stop-opacity:0; stop-color:white"/>
  </linearGradient>
    <rect style="fill:url(#id3)" y="10.12" width="554.26" height="225"/>
   </mask>
  <linearGradient id="id4" gradientUnits="userSpaceOnUse" x1="214.49" y1="66.24" x2="197.97" y2="241.77">
   <stop offset="0" style="stop-opacity:1; stop-color:#1D3070"/>
   <stop offset="1" style="stop-opacity:1; stop-color:#26438D"/>
  </linearGradient>
 </defs>
 <g id="Layer_x0020_1">
  <metadata id="CorelCorpID_0Corel-Layer"/>
  <rect class="fil0" x="0" y="10.12" width="3491.17" height="225"/>
  <path class="fil1" style="mask:url(#id0)" d="M2744.39 302.66l302.35 0 497.17 0 0 -122.22c0,-55.94 -25.7,-152.32 -94.68,-180.44 -1.31,1.23 -2.44,2.29 -3.29,3.11 -36.07,34.63 -74.17,78 -116.71,102.13 -113.75,64.52 -134.43,-26.07 -224.28,-33.87 -72.37,-6.29 -111.5,29.26 -162.14,77.64 -62.78,59.42 -114.17,85.04 -198.41,86.11l0 67.54z"/>
  <path class="fil2" style="mask:url(#id2)" d="M159.52 235.12c12.39,-37.1 36.43,-66.73 109.68,-67.31 13.89,0.32 28.47,0.62 42.26,-0.74 63.47,-6.25 63.3,-57.54 99.23,-88.57 29.68,-18.51 50.06,-16.53 82.69,-28.74 25.15,-9.41 45.16,-23.1 60.89,-39.63l-554.26 0 0 225 159.52 0z"/>
 </g>
</svg>
